<svg width="123.602" height="123.602" viewBox="0 0 32.703 32.703" xmlns="http://www.w3.org/2000/svg"><path style="fill:none;fill-opacity:1;stroke-width:3.71211;stroke-linejoin:round" d="M64.191 197.904h32.703v32.703H64.191z" transform="translate(-64.19 -197.904)"/><g style="fill:#0f172a;fill-opacity:1"><path d="M56.033 261.075a.453.453 0 0 0 0-.131c-.001-.006 0-.013-.002-.02a.465.465 0 0 0-.056-.142l-.006-.015c-.005-.007-.012-.011-.017-.018-.01-.015-.019-.032-.031-.045-.016-.017-.035-.03-.053-.045l-.028-.023a.459.459 0 0 0-.134-.064l-.026-.005a.468.468 0 0 0-.166-.007c-.012.002-.024 0-.037.003l-26.832 6a.463.463 0 0 0-.118.86l7.255 3.904 2.26 7.205c.002.008.007.013.01.02.007.018.016.033.025.05.018.035.039.067.065.096.007.008.01.018.016.025.007.006.016.009.023.014.03.027.064.048.1.066.015.007.027.016.042.022.05.019.104.03.16.03h.01a.45.45 0 0 0 .157-.032c.012-.005.023-.014.035-.02a.46.46 0 0 0 .108-.072c.006-.006.014-.007.02-.014l3.703-3.765 7.15 3.848a.463.463 0 0 0 .658-.263l5.694-17.378c.004-.014.004-.028.007-.042a.385.385 0 0 0 .008-.042zm-3.87 1.177-15.992 8.235-6.113-3.291zm-.96 1.536-11.568 8.873-.002.002a.452.452 0 0 0-.09.097l-.016.024-.017.025a.453.453 0 0 0-.038.095l-.002.004-1.023 3.826-1.723-5.492zm-11.82 13.031.83-3.106 1.455.783zm10.234.905-8.85-4.764 13.906-10.667z" style="fill:#0f172a;fill-opacity:1;fill-rule:nonzero;stroke:none;stroke-width:4.59486;stroke-linecap:butt;stroke-linejoin:miter;stroke-miterlimit:10;stroke-dasharray:none" transform="matrix(.93587 0 0 .93587 -23.106 -239.18)"/><path d="M32.26 285.527a.462.462 0 0 1-.33-.787l4.408-4.481a.463.463 0 0 1 .66.648l-4.408 4.481a.461.461 0 0 1-.33.138zM39.518 283.71a.462.462 0 0 1-.33-.787l4.407-4.48a.463.463 0 0 1 .66.648l-4.407 4.48a.462.462 0 0 1-.33.139zM30.883 279.897a.462.462 0 0 1-.33-.787l3.222-3.275a.463.463 0 0 1 .66.648l-3.222 3.275a.462.462 0 0 1-.33.139z" style="fill:#0f172a;fill-opacity:1;fill-rule:nonzero;stroke:none;stroke-width:.308415;stroke-linecap:butt;stroke-linejoin:miter;stroke-miterlimit:10;stroke-dasharray:none" transform="matrix(.93587 0 0 .93587 -23.106 -239.18)"/></g></svg>