<svg width="218.796" height="218.796" viewBox="0 0 57.89 57.89" xml:space="preserve" xmlns="http://www.w3.org/2000/svg"><path style="fill:none;fill-opacity:1;stroke:none;stroke-width:1.55038;stroke-linejoin:round;stroke-dasharray:none;stroke-opacity:1" d="M9.816 144.157h57.89v57.89H9.816z" transform="translate(-9.816 -144.157)"/><path style="fill:#16bdca;fill-opacity:1;stroke-width:1.47891;stroke-linejoin:round" d="M27.374 184.052h20.104v5.212H27.374z" transform="translate(-8.482 -137.405)"/><path style="fill:#0f172a;fill-opacity:.996078;stroke-width:3.16068;stroke-linejoin:round" transform="matrix(1 .00393 -.00861 .99996 -8.482 -137.405)" d="M24.376 154.987H53.17v2.779H24.376z"/><path style="fill:#0f172a;fill-opacity:.996078;stroke-width:3.1797;stroke-linejoin:round" transform="matrix(1 .00176 -.0192 .99982 -1.245 -140.236)" d="M11.78 166.595h43.255v1.872H11.78z"/><path style="fill:#0f172a;fill-opacity:.996078;stroke-width:3.16331;stroke-linejoin:round" transform="matrix(1 .00195 -.01917 .99982 -1.245 -140.236)" d="M12.055 169.641h42.81v1.872h-42.81z"/><path style="fill:#0f172a;fill-opacity:.996078;stroke-width:3.14684;stroke-linejoin:round" transform="matrix(1 .0023 -.0193 .99981 -1.245 -140.236)" d="M12.357 172.692h42.366v1.872H12.357z"/><path style="fill:#0f172a;fill-opacity:.996078;stroke-width:3.1797;stroke-linejoin:round" transform="matrix(1 .00176 -.0192 .99982 -1.245 -140.236)" d="M11.956 175.769h43.255v1.872H11.956z"/><path style="fill:#0f172a;fill-opacity:.996078;stroke-width:2.91334;stroke-linejoin:round" transform="matrix(1 .0021 -.01612 .99987 -1.245 -140.236)" d="M14.931 178.797h36.313v1.872H14.931z"/></svg>