<svg width="218.796" height="218.796" viewBox="0 0 57.89 57.89" xml:space="preserve" xmlns="http://www.w3.org/2000/svg"><defs><path id="a" d="M284.197 840.701h248.524v103.453H284.197z"/><path id="b" d="M284.197 840.701h248.524v103.453H284.197z"/></defs><path style="fill:none;fill-opacity:1;stroke:none;stroke-width:1.55038;stroke-linejoin:round;stroke-dasharray:none;stroke-opacity:1" d="M74.262 7.533h57.89v57.89h-57.89z" transform="translate(-74.262 -7.533)"/><path style="fill:#ffc273;fill-opacity:1;stroke-width:4.99999;stroke-linejoin:round" transform="rotate(.333 17709.186 -13962.067)" d="M97.085 115.087h37.44v5.349h-37.44z"/><path style="fill:#16bdca;fill-opacity:1;stroke:none;stroke-width:.455001;stroke-linejoin:round;stroke-dasharray:none;stroke-opacity:1" d="M85.858 114.972h6.922v6.922h-6.922z" transform="translate(-80.936 -103.274)"/><path style="fill:#ffc273;fill-opacity:1;stroke-width:4.99999;stroke-linejoin:round" transform="rotate(-.333 -1331.872 12759.59)" d="M89.43 48.141h37.44v5.349H89.43z"/><path style="fill:#16bdca;fill-opacity:1;stroke:none;stroke-width:.455001;stroke-linejoin:round;stroke-dasharray:none;stroke-opacity:1" d="M79.184 46.724h6.922v6.922h-6.922z" transform="translate(-74.262 -7.533)"/><path d="M293.045 861.588q.762 0 1.152 1.25.782 2.344 1.114 2.344.253 0 .527-.39 5.488-8.067 10.156-11.485 1.973-1.445 3.848-1.445 2.48 0 2.988.156.215.059.215.488 0 .352-.45.88-12.558 14.413-14.96 18.75-.82 1.484-3.79 1.484-.976 0-2.05-.508-.45-.235-1.563-2.988-1.406-3.477-1.406-6.094 0-.957 1.367-1.582 1.875-.86 2.813-.86z" aria-label="✔" transform="matrix(.26458 0 0 .26458 -71.24 -185.615)" style="font-size:40px;line-height:1.25;white-space:pre;shape-inside:url(#a);display:inline;fill:#298994"/><g><path style="fill:#ffc273;fill-opacity:1;stroke-width:4.99999;stroke-linejoin:round" transform="rotate(-1.567 -312.488 2710.664)" d="M88.685 36.757h37.44v5.349h-37.44z"/><path style="fill:#16bdca;fill-opacity:1;stroke:none;stroke-width:.455001;stroke-linejoin:round;stroke-dasharray:none;stroke-opacity:1" d="M79.184 33.017h6.922v6.922h-6.922z" transform="translate(-74.262 -7.533)"/><path d="M293.045 861.588q.762 0 1.152 1.25.782 2.344 1.114 2.344.253 0 .527-.39 5.488-8.067 10.156-11.485 1.973-1.445 3.848-1.445 2.48 0 2.988.156.215.059.215.488 0 .352-.45.88-12.558 14.413-14.96 18.75-.82 1.484-3.79 1.484-.976 0-2.05-.508-.45-.235-1.563-2.988-1.406-3.477-1.406-6.094 0-.957 1.367-1.582 1.875-.86 2.813-.86z" aria-label="✔" transform="matrix(.26458 0 0 .26458 -71.24 -199.322)" style="font-size:40px;line-height:1.25;white-space:pre;shape-inside:url(#b);display:inline;fill:#298994"/></g></svg>