<svg width="218.796" height="218.796" viewBox="0 0 57.89 57.89" xml:space="preserve" xmlns="http://www.w3.org/2000/svg"><path style="fill:none;fill-opacity:1;stroke:none;stroke-width:1.55038;stroke-linejoin:round;stroke-dasharray:none;stroke-opacity:1" d="M6.651 72.691h57.89v57.89H6.651z" transform="translate(-6.651 -72.69)"/><path style="fill:#dee2e6;fill-opacity:1;stroke:none;stroke-width:.50666;stroke-linejoin:round;stroke-dasharray:none;stroke-opacity:1" d="M84.632 170.534h48.137v20.136H84.632z" transform="translate(-79.756 -151.657)"/><g style="fill:#42389d;fill-opacity:.728448"><path style="fill:#42389d;fill-opacity:.728448;stroke-width:3.1797;stroke-linejoin:round" transform="matrix(1 .00176 -.0192 .99982 -80.621 -156.262)" d="M91.375 177.994h43.255v1.872H91.375z"/><path style="fill:#42389d;fill-opacity:.728448;stroke-width:3.1797;stroke-linejoin:round" transform="matrix(1 .00193 -.01937 .99981 -80.621 -156.262)" d="M91.463 181.028h43.255v1.872H91.463z"/><path style="fill:#42389d;fill-opacity:.728448;stroke-width:3.1797;stroke-linejoin:round" transform="matrix(1 .00226 -.0197 .9998 -80.621 -156.262)" d="M91.583 184.054h43.255v1.872H91.583z"/><path style="fill:#42389d;fill-opacity:.728448;stroke-width:3.1797;stroke-linejoin:round" transform="matrix(1 .00176 -.0192 .99982 -80.621 -156.262)" d="M91.551 187.168h43.255v1.872H91.551z"/><path style="fill:#42389d;fill-opacity:.728448;stroke-width:2.24903;stroke-linejoin:round" transform="matrix(1 .00352 -.00961 .99995 -80.621 -156.262)" d="M89.765 190.035h21.643v1.872H89.765z"/></g></svg>