<svg width="218.796" height="218.796" viewBox="0 0 57.89 57.89" xml:space="preserve" xmlns="http://www.w3.org/2000/svg"><defs><path id="a" d="M244.957 596.933h71.347v79.67h-71.347z"/><path id="d" d="M244.957 596.933h71.347v79.67h-71.347z"/><path id="b" d="M244.957 596.933h71.347v79.67h-71.347z"/><path id="c" d="M244.957 596.933h71.347v79.67h-71.347z"/></defs><path style="fill:none;fill-opacity:1;stroke:none;stroke-width:1.55038;stroke-linejoin:round;stroke-dasharray:none;stroke-opacity:1" d="M141.121 74.631h57.89v57.89h-57.89z" transform="translate(-141.12 -74.63)"/><path style="fill:#ffc273;fill-opacity:1;stroke-width:4.36609;stroke-linejoin:round" transform="matrix(.99997 -.00763 .00444 .99999 -141.12 -74.63)" d="M160.274 85.063h28.548v5.348h-28.548z"/><path style="fill:#16bdca;fill-opacity:1;stroke:none;stroke-width:.455001;stroke-linejoin:round;stroke-dasharray:none;stroke-opacity:1" d="M150.437 82.944h6.922v6.922h-6.922z" transform="translate(-141.12 -74.63)"/><g style="font-size:40px;line-height:1.25;white-space:pre;shape-inside:url(#a);display:inline;fill:#298994"><path d="M249.156 607.38h8.965v26.075h-5.644v-20.606h-3.32z" style="font-family:'Tw Cen MT Condensed Extra Bold';-inkscape-font-specification:'Tw Cen MT Condensed Extra Bold, '" aria-label="1" transform="translate(-41.759 -121.623) scale(.21501)"/></g><path style="fill:#ffc273;fill-opacity:1;stroke-width:4.3148;stroke-linejoin:round" transform="matrix(.99997 .00781 -.00433 1 -141.12 -74.63)" d="M161.13 105.023h27.882v5.348H161.13z"/><path style="fill:#16bdca;fill-opacity:1;stroke:none;stroke-width:.455001;stroke-linejoin:round;stroke-dasharray:none;stroke-opacity:1" d="M150.437 105.603h6.922v6.922h-6.922z" transform="translate(-141.12 -74.63)"/><g style="font-size:40px;line-height:1.25;white-space:pre;shape-inside:url(#b);display:inline;fill:#298994"><path d="M253.629 615.33h-5.703q.039-2.246.39-3.496.371-1.25 1.25-2.442.899-1.191 2.344-1.914 1.445-.742 3.125-.742 3.008 0 4.961 2.168 1.953 2.148 1.953 5.469 0 3.867-2.988 6.074 3.516 1.816 3.516 6.484 0 1.856-.88 3.711-.859 1.836-2.519 2.676-1.66.82-3.887.82-3.34 0-5.468-1.953-2.13-1.972-2.285-5.41h5.605q.04 2.402 1.914 2.402 1.836 0 1.836-3.28 0-1.524-.547-2.11-.527-.606-1.894-.606h-1.797v-5.41h1.953q1.25 0 1.777-.644.547-.664.547-2.149 0-3.203-1.797-3.203-.84 0-1.133.664-.273.664-.273 2.344z" style="font-family:'Tw Cen MT Condensed Extra Bold';-inkscape-font-specification:'Tw Cen MT Condensed Extra Bold, '" aria-label="3" transform="translate(-42.042 -98.969) scale(.21501)"/></g><g><path style="fill:#ffc273;fill-opacity:1;stroke-width:4.39152;stroke-linejoin:round" transform="rotate(-.432 -9965.412 18673.07) skewX(-.175)" d="M160.115 119.39h28.882v5.348h-28.882z"/><path style="fill:#16bdca;fill-opacity:1;stroke:none;stroke-width:.455001;stroke-linejoin:round;stroke-dasharray:none;stroke-opacity:1" d="M150.437 117.286h6.922v6.922h-6.922z" transform="translate(-141.12 -74.63)"/><g style="font-size:40px;line-height:1.25;white-space:pre;shape-inside:url(#c);display:inline;fill:#298994"><path d="M254.684 607.38h6.074v16.153h2.031v4.727h-2.031v5.195h-5.41v-5.195h-8.36v-4.239zm.586 7.872-3.79 8.281h3.868v-8.281z" style="font-family:'Tw Cen MT Condensed Extra Bold';-inkscape-font-specification:'Tw Cen MT Condensed Extra Bold, '" aria-label="4" transform="translate(-42.027 -87.281) scale(.21501)"/></g></g><g><path style="fill:#16bdca;fill-opacity:1;stroke:none;stroke-width:.455001;stroke-linejoin:round;stroke-dasharray:none;stroke-opacity:1" d="M150.214 94.621h6.922v6.922h-6.922z" transform="translate(-141.12 -74.63)"/><g style="font-size:40px;line-height:1.25;white-space:pre;shape-inside:url(#d);display:inline;fill:#298994"><path d="M253.121 617.049h-5.723q0-2.93.235-4.59.254-1.66 1.015-2.93.782-1.289 2.364-2.05 1.601-.782 3.789-.782 3.613 0 5.547 1.895 1.933 1.894 1.933 5.468 0 1.836-.742 3.965-.742 2.11-2.226 4.649l-3.204 5.468h5.254v5.313H246.48l8.516-14.55q1.563-2.618 1.563-4.767 0-1.074-.47-1.757-.468-.684-1.171-.684-1.113 0-1.465.898-.332.88-.332 3.497z" style="font-family:'Tw Cen MT Condensed Extra Bold';-inkscape-font-specification:'Tw Cen MT Condensed Extra Bold, '" aria-label="2" transform="translate(-42.14 -109.873) scale(.21501)"/></g><g><path style="fill:#ffc273;fill-opacity:1;stroke-width:4.4103;stroke-linejoin:round" transform="matrix(.99938 -.03515 .02128 .99977 -140.502 -75.634)" d="M157.997 101.972h29.134v5.348h-29.134z"/><path style="fill:#787878;fill-opacity:1;stroke:none;stroke-width:.213851;stroke-linejoin:round;stroke-dasharray:none;stroke-opacity:1" d="M168.644 148.619h.865v3.854h-.865z" transform="translate(-131.693 -130.85)"/><path style="fill:#787878;fill-opacity:1;stroke:none;stroke-width:.455001;stroke-linejoin:round;stroke-dasharray:none;stroke-opacity:1" d="m112.845 140.308 1.624-2.814 1.625-2.814 1.625 2.814 1.625 2.814h-3.25z" transform="matrix(.46752 0 0 .46752 -16.893 -47.14)"/><g><path style="fill:#787878;fill-opacity:1;stroke:none;stroke-width:.213851;stroke-linejoin:round;stroke-dasharray:none;stroke-opacity:1" d="M168.644 148.619h.865v3.854h-.865z" transform="matrix(1 0 0 -1 -131.693 175.955)"/><path style="fill:#787878;fill-opacity:1;stroke:none;stroke-width:.455001;stroke-linejoin:round;stroke-dasharray:none;stroke-opacity:1" d="m112.845 140.308 1.624-2.814 1.625-2.814 1.625 2.814 1.625 2.814h-3.25z" transform="matrix(.46752 0 0 -.46752 -16.893 92.245)"/></g></g></g></svg>