<svg width="218.796" height="218.796" viewBox="0 0 57.89 57.89" xml:space="preserve" xmlns="http://www.w3.org/2000/svg"><defs><path id="a" d="M196.754 741.61h343.058v183.3H196.754z"/><path id="b" d="M196.754 741.61h343.058v183.3H196.754z"/><path id="c" d="M196.754 741.61h343.058v183.3H196.754z"/><path id="d" d="M196.754 741.61h343.058v183.3H196.754z"/><path id="e" d="M196.754 741.61h343.058v183.3H196.754z"/></defs><path style="fill:none;fill-opacity:1;stroke:none;stroke-width:1.55038;stroke-linejoin:round;stroke-dasharray:none;stroke-opacity:1" d="M141.356 7.393h57.89v57.89h-57.89z" transform="translate(-141.356 -7.393)"/><path d="M243.863 760.875q0 .88-.37 1.7-.352.8-.997 1.386l-4.57 4.2q-.489.449-.762 1.054-.254.606-.254 1.25 0 .274.059.567l1.113 6.172q.04.195.059.39.02.196.02.39 0 .88-.352 1.641-.332.762-.918 1.329-.586.586-1.368.918-.761.332-1.62.332-1.016 0-1.915-.45l-6.367-3.164q-.625-.312-1.406-.312-.781 0-1.406.312l-6.368 3.164q-.898.45-1.914.45-.859 0-1.64-.332-.762-.332-1.348-.918-.586-.567-.937-1.329-.332-.761-.332-1.64 0-.195.019-.39.02-.196.059-.391l1.113-6.172q.058-.293.058-.567 0-.664-.273-1.25-.273-.605-.762-1.054l-4.55-4.2q-.645-.586-1.016-1.386-.352-.82-.352-1.7 0-.8.274-1.523.273-.723.762-1.289.488-.566 1.152-.938.683-.37 1.484-.488l6.66-.918q.801-.097 1.387-.527.606-.45.977-1.152l3.164-6.036q.566-1.074 1.562-1.68 1.016-.605 2.227-.605 1.21 0 2.207.606 1.015.605 1.582 1.68l3.164 6.035q.351.683.976 1.132.625.45 1.387.547l6.66.918q.801.117 1.465.488.684.372 1.172.938.488.566.762 1.289.273.723.273 1.523z" aria-label="⭐" transform="matrix(.1975 0 0 .1975 -33.626 -121.944)" style="font-size:40px;line-height:1.25;white-space:pre;shape-inside:url(#a);display:inline;fill:#cfa44d"/><path d="M243.863 760.875q0 .88-.37 1.7-.352.8-.997 1.386l-4.57 4.2q-.489.449-.762 1.054-.254.606-.254 1.25 0 .274.059.567l1.113 6.172q.04.195.059.39.02.196.02.39 0 .88-.352 1.641-.332.762-.918 1.329-.586.586-1.368.918-.761.332-1.62.332-1.016 0-1.915-.45l-6.367-3.164q-.625-.312-1.406-.312-.781 0-1.406.312l-6.368 3.164q-.898.45-1.914.45-.859 0-1.64-.332-.762-.332-1.348-.918-.586-.567-.937-1.329-.332-.761-.332-1.64 0-.195.019-.39.02-.196.059-.391l1.113-6.172q.058-.293.058-.567 0-.664-.273-1.25-.273-.605-.762-1.054l-4.55-4.2q-.645-.586-1.016-1.386-.352-.82-.352-1.7 0-.8.274-1.523.273-.723.762-1.289.488-.566 1.152-.938.683-.37 1.484-.488l6.66-.918q.801-.097 1.387-.527.606-.45.977-1.152l3.164-6.036q.566-1.074 1.562-1.68 1.016-.605 2.227-.605 1.21 0 2.207.606 1.015.605 1.582 1.68l3.164 6.035q.351.683.976 1.132.625.45 1.387.547l6.66.918q.801.117 1.465.488.684.372 1.172.938.488.566.762 1.289.273.723.273 1.523z" aria-label="⭐" transform="matrix(.1975 0 0 .1975 -24.483 -121.944)" style="font-size:40px;line-height:1.25;white-space:pre;shape-inside:url(#b);display:inline;fill:#cfa44d"/><path d="M243.863 760.875q0 .88-.37 1.7-.352.8-.997 1.386l-4.57 4.2q-.489.449-.762 1.054-.254.606-.254 1.25 0 .274.059.567l1.113 6.172q.04.195.059.39.02.196.02.39 0 .88-.352 1.641-.332.762-.918 1.329-.586.586-1.368.918-.761.332-1.62.332-1.016 0-1.915-.45l-6.367-3.164q-.625-.312-1.406-.312-.781 0-1.406.312l-6.368 3.164q-.898.45-1.914.45-.859 0-1.64-.332-.762-.332-1.348-.918-.586-.567-.937-1.329-.332-.761-.332-1.64 0-.195.019-.39.02-.196.059-.391l1.113-6.172q.058-.293.058-.567 0-.664-.273-1.25-.273-.605-.762-1.054l-4.55-4.2q-.645-.586-1.016-1.386-.352-.82-.352-1.7 0-.8.274-1.523.273-.723.762-1.289.488-.566 1.152-.938.683-.37 1.484-.488l6.66-.918q.801-.097 1.387-.527.606-.45.977-1.152l3.164-6.036q.566-1.074 1.562-1.68 1.016-.605 2.227-.605 1.21 0 2.207.606 1.015.605 1.582 1.68l3.164 6.035q.351.683.976 1.132.625.45 1.387.547l6.66.918q.801.117 1.465.488.684.372 1.172.938.488.566.762 1.289.273.723.273 1.523z" aria-label="⭐" transform="matrix(.1975 0 0 .1975 -15.34 -121.944)" style="font-size:40px;line-height:1.25;white-space:pre;shape-inside:url(#c);display:inline;fill:#cfa44d"/><path d="M243.863 760.875q0 .88-.37 1.7-.352.8-.997 1.386l-4.57 4.2q-.489.449-.762 1.054-.254.606-.254 1.25 0 .274.059.567l1.113 6.172q.04.195.059.39.02.196.02.39 0 .88-.352 1.641-.332.762-.918 1.329-.586.586-1.368.918-.761.332-1.62.332-1.016 0-1.915-.45l-6.367-3.164q-.625-.312-1.406-.312-.781 0-1.406.312l-6.368 3.164q-.898.45-1.914.45-.859 0-1.64-.332-.762-.332-1.348-.918-.586-.567-.937-1.329-.332-.761-.332-1.64 0-.195.019-.39.02-.196.059-.391l1.113-6.172q.058-.293.058-.567 0-.664-.273-1.25-.273-.605-.762-1.054l-4.55-4.2q-.645-.586-1.016-1.386-.352-.82-.352-1.7 0-.8.274-1.523.273-.723.762-1.289.488-.566 1.152-.938.683-.37 1.484-.488l6.66-.918q.801-.097 1.387-.527.606-.45.977-1.152l3.164-6.036q.566-1.074 1.562-1.68 1.016-.605 2.227-.605 1.21 0 2.207.606 1.015.605 1.582 1.68l3.164 6.035q.351.683.976 1.132.625.45 1.387.547l6.66.918q.801.117 1.465.488.684.372 1.172.938.488.566.762 1.289.273.723.273 1.523z" aria-label="⭐" transform="matrix(.1975 0 0 .1975 -6.196 -121.944)" style="font-size:40px;line-height:1.25;white-space:pre;shape-inside:url(#d);display:inline;fill:#cfa44d"/><path d="M243.863 760.875q0 .88-.37 1.7-.352.8-.997 1.386l-4.57 4.2q-.489.449-.762 1.054-.254.606-.254 1.25 0 .274.059.567l1.113 6.172q.04.195.059.39.02.196.02.39 0 .88-.352 1.641-.332.762-.918 1.329-.586.586-1.368.918-.761.332-1.62.332-1.016 0-1.915-.45l-6.367-3.164q-.625-.312-1.406-.312-.781 0-1.406.312l-6.368 3.164q-.898.45-1.914.45-.859 0-1.64-.332-.762-.332-1.348-.918-.586-.567-.937-1.329-.332-.761-.332-1.64 0-.195.019-.39.02-.196.059-.391l1.113-6.172q.058-.293.058-.567 0-.664-.273-1.25-.273-.605-.762-1.054l-4.55-4.2q-.645-.586-1.016-1.386-.352-.82-.352-1.7 0-.8.274-1.523.273-.723.762-1.289.488-.566 1.152-.938.683-.37 1.484-.488l6.66-.918q.801-.097 1.387-.527.606-.45.977-1.152l3.164-6.036q.566-1.074 1.562-1.68 1.016-.605 2.227-.605 1.21 0 2.207.606 1.015.605 1.582 1.68l3.164 6.035q.351.683.976 1.132.625.45 1.387.547l6.66.918q.801.117 1.465.488.684.372 1.172.938.488.566.762 1.289.273.723.273 1.523z" aria-label="⭐" transform="matrix(.1975 0 0 .1975 2.947 -121.944)" style="font-size:40px;line-height:1.25;white-space:pre;shape-inside:url(#e);display:inline;fill:#cfa44d"/></svg>