<svg width="218.796" height="218.796" viewBox="0 0 57.89 57.89" xml:space="preserve" xmlns="http://www.w3.org/2000/svg"><defs><path id="a" d="M197.392 877.563h55.888v55.888h-55.888z"/></defs><path style="fill:#16bdca;fill-opacity:1;stroke-width:1.47891;stroke-linejoin:round" d="M94.953 185.289h20.104v5.212H94.953z" transform="translate(-76.06 -144.136)"/><path style="fill:#0f172a;fill-opacity:.996078;stroke-width:3.1987;stroke-linejoin:round" transform="matrix(1 .00205 -.01652 .99986 -76.06 -144.136)" d="M87.682 171.73h40.353v2.031H87.682zM87.736 174.983h40.353v2.031H87.736z"/><g aria-label="✓" transform="matrix(.29498 0 0 .26458 -34.103 -220.987)" style="font-size:40px;line-height:1.25;white-space:pre;shape-inside:url(#a);display:inline;fill:#0dd157"><circle style="fill:#fff;fill-opacity:1;stroke:#0dd157;stroke-width:.855;stroke-linejoin:round;stroke-dasharray:none;stroke-opacity:1" cx="105.005" cy="161.122" r="5.034" transform="matrix(3.3901 0 0 3.77953 -142.238 290.46)"/><path d="M206.24 901.184q.762 0 1.153 1.25.78 2.344 1.113 2.344.254 0 .527-.39 5.488-8.79 10.156-14.22 1.211-1.406 3.848-1.406.625 0 .84.117.215.118.215.293 0 .274-.645 1.075-7.539 9.062-13.984 19.14-.45.703-1.836.703-1.406 0-1.66-.117-.664-.293-1.563-2.988-1.015-2.988-1.015-3.75 0-.82 1.367-1.582.84-.469 1.484-.469z"/></g><path style="fill:none;fill-opacity:1;stroke:none;stroke-width:1.55038;stroke-linejoin:round;stroke-dasharray:none;stroke-opacity:1" d="M76.06 144.136h57.89v57.89H76.06z" transform="translate(-76.06 -144.136)"/></svg>