<svg width="218.796" height="218.796" viewBox="0 0 57.89 57.89" xml:space="preserve" xmlns="http://www.w3.org/2000/svg"><defs><path id="a" d="M633.796 675.414h79.67v95.129h-79.67z"/><path id="b" d="M633.796 675.414h79.67v95.129h-79.67z"/><path id="c" d="M291.767 922.388h90.809v56.335h-90.809z"/><path id="d" d="M291.767 922.388h90.809v56.335h-90.809z"/></defs><path style="fill:none;fill-opacity:1;stroke:none;stroke-width:1.55038;stroke-linejoin:round;stroke-dasharray:none;stroke-opacity:1" d="M69.834 215.514h57.89v57.89h-57.89z" transform="translate(-69.834 -215.514)"/><path style="fill:#dee2e6;fill-opacity:1;stroke:none;stroke-width:.266208;stroke-linejoin:round;stroke-dasharray:none;stroke-opacity:1" d="M82.273 234.391h33.013v8.105H82.273z" transform="translate(-69.834 -215.514)"/><path style="fill:#42389d;fill-opacity:.728448;stroke-width:1.70561;stroke-linejoin:round" transform="rotate(.351 35151.646 -11509.48) skewX(.034)" d="M86.016 236.851h12.448v1.872H86.016z"/><path style="fill:#42389d;fill-opacity:.728448;stroke-width:1.31668;stroke-linejoin:round" transform="matrix(.99995 .01028 -.0033 1 -69.834 -215.514)" d="M102.204 236.458h7.418v1.872h-7.418z"/><path style="fill:#42389d;fill-opacity:.728448;stroke-width:.734198;stroke-linejoin:round" transform="matrix(.99945 .03305 -.00102 1 -69.834 -215.514)" d="M110.546 233.853h2.307v1.872h-2.307z"/><g style="font-size:40px;line-height:1.25;white-space:pre;shape-inside:url(#a);fill:#42389d;fill-opacity:.729412"><path d="M646.275 698.37c0-2.36 1.68-4.4 4-4.4 2 0 3.08 1.4 3.08 3.44 0 2.56-1.6 4.52-3.88 4.52-1.84 0-3.2-1.28-3.2-3.56zm11.92-5.52c.12-.56.16-.92.16-1.16 0-1.12-.8-1.72-1.76-1.72-.72 0-1.64.2-1.92 1.44l-.16.72c-1.16-1.68-2.52-2.48-4.96-2.48-3.96 0-7.6 4.04-7.6 9.56 0 3.96 2.48 7.04 5.88 7.04 1.84 0 3.2-.92 4.16-2.04h.08c.04 1.36.84 2.04 2.4 2.04 2.4 0 10.12-2.44 10.12-11.52 0-7.64-6.44-12.4-14.08-12.4-8.56 0-15.52 6.48-15.52 15.12 0 8.8 7.12 15.04 15.76 15.04 4.04 0 10.12-2.52 10.12-4.68 0-.84-.72-1.56-1.52-1.56-1.36 0-2.6 2.64-8.6 2.64-6.48 0-11.44-4.32-11.44-11.44 0-6.36 4.92-11.52 11.08-11.52s10.6 3.48 10.6 9.96c0 4.32-2.08 6.16-3.52 6.16-.56 0-.76-.32-.76-.8 0-.32.16-1.08.24-1.44z" style="font-family:'Helvetica Rounded LT Std';-inkscape-font-specification:'Helvetica Rounded LT Std'" aria-label="@" transform="matrix(.1211 0 0 .1211 -49.25 -61.603)"/></g><path d="M636.675 709.65q0-1.48.72-2.08.72-.6 1.72-.6t1.76.6q.76.6.76 2.08 0 1.44-.76 2.08-.76.64-1.76.64t-1.72-.64q-.72-.64-.72-2.08z" aria-label="." transform="matrix(.1211 0 0 .1211 -37.63 -62.32)" style="font-size:40px;line-height:1.25;white-space:pre;shape-inside:url(#b);fill:#42389d;fill-opacity:.729412"/><g><path style="fill:none;fill-opacity:1;stroke:none;stroke-width:1.55038;stroke-linejoin:round;stroke-dasharray:none;stroke-opacity:1" d="M96.64 222.908h57.89v57.89H96.64z" transform="translate(-80.118 -173.667)"/><path style="fill:#dee2e6;fill-opacity:1;stroke:none;stroke-width:.253339;stroke-linejoin:round;stroke-dasharray:none;stroke-opacity:1" d="M110.636 241.785h29.898v8.105h-29.898z" transform="translate(-80.118 -173.667)"/><path style="fill:#42389d;fill-opacity:.728448;stroke-width:1.01774;stroke-linejoin:round" transform="matrix(.99985 .0172 -.00197 1 -80.075 -173.667)" d="M114.214 242.804h4.432v1.872h-4.432zM122.349 242.664h4.432v1.872h-4.432z"/><path style="fill:#42389d;fill-opacity:.728448;stroke-width:1.31303;stroke-linejoin:round" transform="matrix(.99995 .01033 -.00328 1 -80.075 -173.667)" d="M130.795 243.418h7.377v1.872h-7.377z"/><text xml:space="preserve" transform="matrix(.1134 0 0 .1134 6.001 -35.013)" style="font-style:normal;font-weight:400;font-size:40px;line-height:1.25;font-family:sans-serif;white-space:pre;shape-inside:url(#c);fill:#42389d;fill-opacity:.729412;stroke:none"><tspan x="291.768" y="958.784"><tspan style="font-family:'Helvetica Rounded LT Std';-inkscape-font-specification:'Helvetica Rounded LT Std'">/</tspan></tspan></text><text xml:space="preserve" transform="matrix(.1134 0 0 .1134 14.136 -35.013)" style="font-style:normal;font-weight:400;font-size:40px;line-height:1.25;font-family:sans-serif;white-space:pre;shape-inside:url(#d);fill:#42389d;fill-opacity:.729412;stroke:none"><tspan x="291.768" y="958.784"><tspan style="font-family:'Helvetica Rounded LT Std';-inkscape-font-specification:'Helvetica Rounded LT Std'">/</tspan></tspan></text></g></svg>