<svg width="218.796" height="218.796" viewBox="0 0 57.89 57.89" xml:space="preserve" xmlns="http://www.w3.org/2000/svg"><defs><path id="a" d="M291.767 922.388h90.809v56.335h-90.809z"/></defs><path style="fill:none;fill-opacity:1;stroke:none;stroke-width:1.55038;stroke-linejoin:round;stroke-dasharray:none;stroke-opacity:1" d="M7.865 215.514h57.89v57.89H7.865z" transform="translate(-9.405 -262.547)"/><path style="fill:#dee2e6;fill-opacity:1;stroke:none;stroke-width:.321455;stroke-linejoin:round;stroke-dasharray:none;stroke-opacity:1" d="M12.742 234.391h48.137v8.105H12.742z" transform="translate(-9.405 -262.547)"/><path style="fill:#42389d;fill-opacity:.728448;stroke-width:3.1797;stroke-linejoin:round" transform="matrix(1 .00176 -.0192 .99982 -9.405 -262.547)" d="M19.759 237.384h43.255v1.872H19.759z"/><g><path style="fill:none;fill-opacity:1;stroke:none;stroke-width:1.55038;stroke-linejoin:round;stroke-dasharray:none;stroke-opacity:1" d="M5.369 220.831h57.89v57.89H5.369z" transform="translate(-5.37 -220.831)"/><path style="fill:#dee2e6;fill-opacity:1;stroke:none;stroke-width:.168279;stroke-linejoin:round;stroke-dasharray:none;stroke-opacity:1" d="M27.718 239.708H40.91v8.105H27.718z" transform="translate(-5.37 -220.831)"/><g aria-label="###" transform="matrix(.1181 0 0 .1181 -9.847 -88.648)" style="font-size:40px;line-height:1.25;white-space:pre;shape-inside:url(#a);fill:#42389d;fill-opacity:.729412"><path d="M297.848 947.224h-2.08c-1.4 0-1.92.96-1.92 1.92s.52 1.92 1.92 1.92h1.52l-.72 5.2c-.08.76-.12 1.16-.12 1.4 0 1 .84 1.64 1.84 1.64 1.6 0 2.08-.92 2.24-2.08l.84-6.16h3.52l-.72 5.2c-.08.76-.12 1.16-.12 1.4 0 1 .84 1.64 1.84 1.64 1.6 0 2.08-.92 2.24-2.08l.84-6.16h2.08c1.4 0 1.92-.96 1.92-1.92s-.52-1.92-1.92-1.92h-1.52l.64-4.8h2.08c1.4 0 1.92-.96 1.92-1.92s-.52-1.92-1.92-1.92h-1.52l.72-5.2c.08-.76.12-1.16.12-1.4 0-1-.84-1.64-1.84-1.64-1.6 0-2.08.92-2.24 2.08l-.84 6.16h-3.52l.72-5.2c.08-.76.12-1.16.12-1.4 0-1-.84-1.64-1.84-1.64-1.6 0-2.08.92-2.24 2.08l-.84 6.16h-2.08c-1.4 0-1.92.96-1.92 1.92s.52 1.92 1.92 1.92h1.52zm7.6 0h-3.52l.64-4.8h3.52zM322.328 947.224h-2.08c-1.4 0-1.92.96-1.92 1.92s.52 1.92 1.92 1.92h1.52l-.72 5.2c-.08.76-.12 1.16-.12 1.4 0 1 .84 1.64 1.84 1.64 1.6 0 2.08-.92 2.24-2.08l.84-6.16h3.52l-.72 5.2c-.08.76-.12 1.16-.12 1.4 0 1 .84 1.64 1.84 1.64 1.6 0 2.08-.92 2.24-2.08l.84-6.16h2.08c1.4 0 1.92-.96 1.92-1.92s-.52-1.92-1.92-1.92h-1.52l.64-4.8h2.08c1.4 0 1.92-.96 1.92-1.92s-.52-1.92-1.92-1.92h-1.52l.72-5.2c.08-.76.12-1.16.12-1.4 0-1-.84-1.64-1.84-1.64-1.6 0-2.08.92-2.24 2.08l-.84 6.16h-3.52l.72-5.2c.08-.76.12-1.16.12-1.4 0-1-.84-1.64-1.84-1.64-1.6 0-2.08.92-2.24 2.08l-.84 6.16h-2.08c-1.4 0-1.92.96-1.92 1.92s.52 1.92 1.92 1.92h1.52zm7.6 0h-3.52l.64-4.8h3.52zM346.808 947.224h-2.08c-1.4 0-1.92.96-1.92 1.92s.52 1.92 1.92 1.92h1.52l-.72 5.2c-.08.76-.12 1.16-.12 1.4 0 1 .84 1.64 1.84 1.64 1.6 0 2.08-.92 2.24-2.08l.84-6.16h3.52l-.72 5.2c-.08.76-.12 1.16-.12 1.4 0 1 .84 1.64 1.84 1.64 1.6 0 2.08-.92 2.24-2.08l.84-6.16h2.08c1.4 0 1.92-.96 1.92-1.92s-.52-1.92-1.92-1.92h-1.52l.64-4.8h2.08c1.4 0 1.92-.96 1.92-1.92s-.52-1.92-1.92-1.92h-1.52l.72-5.2c.08-.76.12-1.16.12-1.4 0-1-.84-1.64-1.84-1.64-1.6 0-2.08.92-2.24 2.08l-.84 6.16h-3.52l.72-5.2c.08-.76.12-1.16.12-1.4 0-1-.84-1.64-1.84-1.64-1.6 0-2.08.92-2.24 2.08l-.84 6.16h-2.08c-1.4 0-1.92.96-1.92 1.92s.52 1.92 1.92 1.92h1.52zm7.6 0h-3.52l.64-4.8h3.52z" style="font-family:'Helvetica Rounded LT Std';-inkscape-font-specification:'Helvetica Rounded LT Std'"/></g></g></svg>