<svg width="218.796" height="218.796" viewBox="0 0 57.89 57.89" xml:space="preserve" xmlns="http://www.w3.org/2000/svg"><defs><path id="a" d="M291.767 922.388h90.809v56.335h-90.809z"/><path id="b" d="M291.767 922.388h90.809v56.335h-90.809z"/></defs><path style="fill:none;fill-opacity:1;stroke:none;stroke-width:1.55038;stroke-linejoin:round;stroke-dasharray:none;stroke-opacity:1" d="M130.724 217.559h57.89v57.89h-57.89z" transform="translate(-130.724 -217.559)"/><path style="fill:#dee2e6;fill-opacity:1;stroke:none;stroke-width:.266208;stroke-linejoin:round;stroke-dasharray:none;stroke-opacity:1" d="M143.163 236.436h33.013v8.105h-33.013z" transform="translate(-130.724 -217.559)"/><path style="fill:#42389d;fill-opacity:.728448;stroke-width:2.08369;stroke-linejoin:round" transform="matrix(1 .0041 -.00825 .99997 -130.724 -217.559)" d="M156.696 238.785h18.578v1.872h-18.578z"/><g aria-label="44" style="font-size:10.5833px;line-height:1.25;fill:#42389d;fill-opacity:.729412;stroke-width:.264583"><path d="M136.133 274.901h-1.62c-.444 0-.74.254-.74.635 0 .318.296.635.74.635h1.62v1.62c0 .433.243.74.635.74.391 0 .635-.307.635-.74v-1.62h1.619c.444 0 .74-.254.74-.635 0-.38-.296-.635-.74-.635h-1.62v-1.62c0-.433-.243-.74-.634-.74-.392 0-.635.307-.635.74zM143.54 275.631h-2.063l2.043-2.74h.021zm0 2.297c0 .444.191.74.742.74.55 0 .74-.296.74-.74v-1.09h.53c.36 0 .592-.254.592-.603 0-.35-.232-.604-.592-.604h-.53v-3.863c0-.455-.222-.762-.793-.762-.296 0-.53.085-.688.297l-3.26 4.18c-.137.18-.2.35-.2.625 0 .338.253.73.804.73h2.656zM150.007 275.631h-2.063l2.042-2.74h.021zm0 2.297c0 .444.19.74.741.74.55 0 .741-.296.741-.74v-1.09h.53c.359 0 .592-.254.592-.603 0-.35-.233-.604-.593-.604h-.529v-3.863c0-.455-.222-.762-.794-.762-.296 0-.529.085-.688.297l-3.26 4.18c-.137.18-.2.35-.2.625 0 .338.254.73.804.73h2.656z" style="font-family:'Helvetica Rounded LT Std';-inkscape-font-specification:'Helvetica Rounded LT Std'" transform="matrix(.44637 0 0 .44637 -44.851 -99.846)"/></g><g><path style="fill:none;fill-opacity:1;stroke:none;stroke-width:1.55038;stroke-linejoin:round;stroke-dasharray:none;stroke-opacity:1" d="M96.64 222.908h57.89v57.89H96.64z" transform="translate(-143.525 -174.27)"/><path style="fill:#dee2e6;fill-opacity:1;stroke:none;stroke-width:.253339;stroke-linejoin:round;stroke-dasharray:none;stroke-opacity:1" d="M110.636 241.785h29.898v8.105h-29.898z" transform="translate(-143.525 -174.27)"/><path style="fill:#42389d;fill-opacity:.728448;stroke-width:1.01774;stroke-linejoin:round" transform="matrix(.99985 .0172 -.00197 1 -143.482 -174.27)" d="M114.214 242.804h4.432v1.872h-4.432zM122.349 242.664h4.432v1.872h-4.432z"/><path style="fill:#42389d;fill-opacity:.728448;stroke-width:1.31303;stroke-linejoin:round" transform="matrix(.99995 .01033 -.00328 1 -143.482 -174.27)" d="M130.795 243.418h7.377v1.872h-7.377z"/><text xml:space="preserve" transform="matrix(.1134 0 0 .1134 -57.405 -35.615)" style="font-style:normal;font-weight:400;font-size:40px;line-height:1.25;font-family:sans-serif;white-space:pre;shape-inside:url(#a);fill:#42389d;fill-opacity:.729412;stroke:none"><tspan x="291.768" y="958.784"><tspan style="font-family:'Helvetica Rounded LT Std';-inkscape-font-specification:'Helvetica Rounded LT Std'">/</tspan></tspan></text><text xml:space="preserve" transform="matrix(.1134 0 0 .1134 -49.27 -35.615)" style="font-style:normal;font-weight:400;font-size:40px;line-height:1.25;font-family:sans-serif;white-space:pre;shape-inside:url(#b);fill:#42389d;fill-opacity:.729412;stroke:none"><tspan x="291.768" y="958.784"><tspan style="font-family:'Helvetica Rounded LT Std';-inkscape-font-specification:'Helvetica Rounded LT Std'">/</tspan></tspan></text></g></svg>